<svg
  class="medal"
  fill="white"
  height="0.9em"
  width="0.9em"
  viewBox="0 0 512.003 512.003"
>
  <g>
    <g>
      <g>
        <path
          d="M256.001,64c-70.592,0-128,57.408-128,128s57.408,128,128,128s128-57.408,128-128S326.593,64,256.001,64z
M256.001,298.667c-58.816,0-106.667-47.851-106.667-106.667S197.185,85.333,256.001,85.333S362.668,133.184,362.668,192
S314.817,298.667,256.001,298.667z"
        />
        <path
          d="M385.644,333.205c38.229-35.136,62.357-85.333,62.357-141.205c0-105.856-86.123-192-192-192s-192,86.144-192,192
c0,55.851,24.128,106.069,62.336,141.184L64.684,497.6c-1.536,4.117-0.405,8.725,2.837,11.669
c2.027,1.792,4.565,2.731,7.147,2.731c1.621,0,3.243-0.363,4.779-1.109l79.787-39.893l58.859,39.232
c2.688,1.792,6.101,2.24,9.195,1.28c3.093-1.003,5.568-3.349,6.699-6.4l23.296-62.144l20.587,61.739
c1.067,3.157,3.541,5.632,6.677,6.72c3.136,1.067,6.592,0.64,9.365-1.216l58.859-39.232l79.787,39.893
c1.536,0.768,3.157,1.131,4.779,1.131c2.581,0,5.12-0.939,7.125-2.752c3.264-2.923,4.373-7.552,2.837-11.669L385.644,333.205z
M246.017,412.267l-27.285,72.747l-52.821-35.2c-3.2-2.112-7.317-2.389-10.688-0.661L94.188,479.68l49.579-132.224
c26.859,19.435,58.795,32.213,93.547,35.605L246.7,411.2C246.487,411.563,246.167,411.84,246.017,412.267z M256.001,362.667
C161.9,362.667,85.335,286.101,85.335,192S161.9,21.333,256.001,21.333S426.668,97.899,426.668,192
S350.103,362.667,256.001,362.667z M356.759,449.131c-3.413-1.728-7.509-1.472-10.688,0.661l-52.373,34.923l-33.643-100.928
c40.341-0.853,77.589-14.187,108.16-36.331l49.579,132.203L356.759,449.131z"
        />
      </g>
    </g>
  </g>
</svg>
